HIERARCHY
ROOT Hips
{
	OFFSET 0.00000 0.00000 0.00000
	CHANNELS 6 Xposition Yposition Zposition Zrotation Yrotation Xrotation 
	JOINT LHipJoint
	{
		OFFSET 0 0 0
		CHANNELS 3 Zrotation Yrotation Xrotation
		JOINT LeftUpLeg
		{
			OFFSET 1.36306 -1.79463 0.83929
			CHANNELS 3 Zrotation Yrotation Xrotation
			JOINT LeftLeg
			{
				OFFSET 2.44811 -6.72613 0.00000
				CHANNELS 3 Zrotation Yrotation Xrotation
				JOINT LeftFoot
				{
					OFFSET 2.56220 -7.03959 0.00000
					CHANNELS 3 Zrotation Yrotation Xrotation
					JOINT LeftToeBase
					{
						OFFSET 0.15764 -0.43311 2.32255
						CHANNELS 3 Zrotation Yrotation Xrotation
						End Site
						{
							OFFSET 0.00000 -0.00000 1.18966
						}
					}
				}
			}
		}
	}
	JOINT RHipJoint
	{
		OFFSET 0 0 0
		CHANNELS 3 Zrotation Yrotation Xrotation
		JOINT RightUpLeg
		{
			OFFSET -1.30552 -1.79463 0.83929
			CHANNELS 3 Zrotation Yrotation Xrotation
			JOINT RightLeg
			{
				OFFSET -2.54253 -6.98555 0.00000
				CHANNELS 3 Zrotation Yrotation Xrotation
				JOINT RightFoot
				{
					OFFSET -2.56826 -7.05623 0.00000
					CHANNELS 3 Zrotation Yrotation Xrotation
					JOINT RightToeBase
					{
						OFFSET -0.16473 -0.45259 2.36315
						CHANNELS 3 Zrotation Yrotation Xrotation
						End Site
						{
							OFFSET -0.00000 -0.00000 1.21082
						}
					}
				}
			}
		}
	}
	JOINT LowerBack
	{
		OFFSET 0 0 0
		CHANNELS 3 Zrotation Yrotation Xrotation
		JOINT Spine
		{
			OFFSET 0.02827 2.03559 -0.19338
			CHANNELS 3 Zrotation Yrotation Xrotation
			JOINT Spine1
			{
				OFFSET 0.05672 2.04885 -0.04275
				CHANNELS 3 Zrotation Yrotation Xrotation
				JOINT Neck
				{
					OFFSET 0 0 0
					CHANNELS 3 Zrotation Yrotation Xrotation
					JOINT Neck1
					{
						OFFSET -0.05417 1.74624 0.17202
						CHANNELS 3 Zrotation Yrotation Xrotation
						JOINT Head
						{
							OFFSET 0.10407 1.76136 -0.12397
							CHANNELS 3 Zrotation Yrotation Xrotation
							End Site
							{
								OFFSET 0.03720 1.77044 -0.06241
							}
						}
					}
				}
				JOINT LeftShoulder
				{
					OFFSET 0 0 0
					CHANNELS 3 Zrotation Yrotation Xrotation
					JOINT LeftArm
					{
						OFFSET 3.36241 1.20089 -0.31121
						CHANNELS 3 Zrotation Yrotation Xrotation
						JOINT LeftForeArm
						{
							OFFSET 4.98300 -0.00000 -0.00000
							CHANNELS 3 Zrotation Yrotation Xrotation
							JOINT LeftHand
							{
								OFFSET 3.48356 -0.00000 -0.00000
								CHANNELS 3 Zrotation Yrotation Xrotation
								JOINT LeftFingerBase
								{
									OFFSET 0 0 0
									CHANNELS 3 Zrotation Yrotation Xrotation
									JOINT LeftHandIndex1
									{
										OFFSET 0.71526 -0.00000 -0.00000
										CHANNELS 3 Zrotation Yrotation Xrotation
										End Site
										{
											OFFSET 0.57666 -0.00000 -0.00000
										}
									}
								}
								JOINT LThumb
								{
									OFFSET 0 0 0
									CHANNELS 3 Zrotation Yrotation Xrotation
									End Site
									{
										OFFSET 0.58547 -0.00000 0.58547
									}
								}
							}
						}
					}
				}
				JOINT RightShoulder
				{
					OFFSET 0 0 0
					CHANNELS 3 Zrotation Yrotation Xrotation
					JOINT RightArm
					{
						OFFSET -3.13660 1.37405 -0.40465
						CHANNELS 3 Zrotation Yrotation Xrotation
						JOINT RightForeArm
						{
							OFFSET -5.24190 -0.00000 -0.00000
							CHANNELS 3 Zrotation Yrotation Xrotation
							JOINT RightHand
							{
								OFFSET -3.44417 -0.00000 -0.00000
								CHANNELS 3 Zrotation Yrotation Xrotation
								JOINT RightFingerBase
								{
									OFFSET 0 0 0
									CHANNELS 3 Zrotation Yrotation Xrotation
									JOINT RightHandIndex1
									{
										OFFSET -0.62253 -0.00000 -0.00000
										CHANNELS 3 Zrotation Yrotation Xrotation
										End Site
										{
											OFFSET -0.50190 -0.00000 -0.00000
										}
									}
								}
								JOINT RThumb
								{
									OFFSET 0 0 0
									CHANNELS 3 Zrotation Yrotation Xrotation
									End Site
									{
										OFFSET -0.50956 -0.00000 0.50956
									}
								}
							}
						}
					}
				}
			}
		}
	}
}
MOTION
Frames: 9
Frame Time: .0083333
12.6932 17.3258 33.4982 -186.3160 -184.8370 -218.9460 0.0000 0.0000 0.0000 -14.0173 -2.7683 -20.1046 5.3530 13.7706 42.3263 0.4498 -20.2126 -17.6727 0.0668 1.6673 4.5869 0.0000 0.0000 0.0000 26.6040 6.5948 -19.2617 -5.4133 -13.8347 42.5792 -1.1205 -2.8010 -21.1862 -0.3400 -3.7469 10.3657 -1.3698 -0.9174 15.8780 1.0738 -1.3720 4.0356 2.1748 -0.6666 -4.5428 -6.8661 -8.3205 3.4014 12.9557 -9.2588 -28.8924 6.2885 -4.8949 -8.4417 0.0000 -0.0000 0.0000 -88.5282 -9.0479 43.6229 98.7198 -59.7107 -67.5442 -0.0000 -0.0000 33.3874 -13.3715 -2.5186 0.5985 -7.1250 0.0000 -0.0000 -29.3832 26.7105 14.9813 0.0000 -0.0000 0.0000 82.9447 11.1780 50.9003 -98.4335 59.7295 -67.2970 0.0000 0.0000 20.0575 -9.5745 -26.3031 4.2747 7.1250 -0.0000 -0.0000 21.7208 -55.2539 -5.6637
12.6692 17.3939 33.5715 -186.2350 -185.8410 -218.6480 0.0000 0.0000 0.0000 -14.7204 -3.0291 -20.0021 5.3172 13.7323 42.1757 0.4097 -20.1799 -17.3642 0.0698 1.7046 4.6899 0.0000 0.0000 0.0000 25.9383 6.3927 -19.1597 -5.3873 -13.8071 42.4700 -1.2054 -2.1032 -21.5959 -0.4813 -4.4490 12.3433 -1.9600 -1.0048 15.0474 0.7969 -1.5824 4.2670 2.2299 -0.7798 -3.8327 -7.1651 -8.4877 4.2476 13.2865 -9.4674 -29.8830 6.5891 -4.9994 -8.8784 -0.0000 -0.0000 0.0000 -88.7270 -8.5755 43.5668 99.0027 -59.6915 -67.7885 -0.0000 -0.0000 33.7366 -13.2288 -2.8823 0.6773 -7.1250 0.0000 -0.0000 -29.1959 26.3937 15.1134 -0.0000 -0.0000 0.0000 81.8587 10.9388 51.9057 -100.0462 59.6152 -68.6890 0.0000 0.0000 19.2415 -10.1583 -27.3188 4.7009 7.1250 -0.0000 -0.0000 21.7922 -56.3090 -6.2520
12.6386 17.4693 33.6458 -187.0360 -185.9880 -218.6120 0.0000 0.0000 0.0000 -13.9879 -2.9288 -19.8306 5.2838 13.6964 42.0347 0.3485 -20.3827 -17.0356 0.0695 1.7006 4.6790 0.0000 0.0000 0.0000 26.5719 6.8256 -18.7355 -5.3768 -13.7959 42.4260 -1.3330 -0.6400 -22.0688 -0.8617 -5.9194 16.5508 -1.4440 -1.3313 14.7118 0.6678 -1.9391 4.5864 1.8486 -0.9673 -3.3203 -6.7399 -8.5600 4.0589 13.3925 -9.4579 -30.3141 6.5790 -5.0421 -9.0162 -0.0000 0.0000 0.0000 -88.1890 -8.2689 43.1548 100.3663 -59.5900 -68.9651 -0.0000 -0.0000 33.8532 -13.2917 -2.9476 0.6960 -7.1250 0.0000 -0.0000 -29.2202 26.3313 15.1807 -0.0000 0.0000 0.0000 82.5555 10.4666 52.2781 -100.4451 59.5837 -69.0331 0.0000 0.0000 20.0108 -11.2166 -28.0025 5.3193 7.1250 -0.0000 -0.0000 21.1850 -57.1601 -6.5089
12.6116 17.5637 33.7113 -187.5370 -186.3700 -218.6050 0.0000 0.0000 0.0000 -13.7366 -2.7254 -19.5448 5.2523 13.6624 41.9014 0.3158 -20.6662 -16.9656 0.0304 1.1253 3.0936 0.0000 0.0000 0.0000 26.6329 7.3883 -18.2930 -5.3453 -13.7624 42.2938 -1.4164 1.7226 -22.0097 -1.6235 -8.0333 22.8153 -1.3719 -1.5667 14.4976 0.5691 -2.2418 4.8472 1.7424 -1.1244 -2.9257 -6.5028 -8.6037 4.0175 13.5011 -9.4394 -30.7903 6.6144 -5.0639 -9.1880 0.0000 -0.0000 0.0000 -88.0267 -7.7293 42.8622 102.0164 -59.4473 -70.3872 -0.0000 -0.0000 34.2802 -13.3668 -2.9692 0.7052 -7.1250 0.0000 -0.0000 -29.2636 26.3072 15.2300 0.0000 -0.0000 0.0000 82.6757 9.9414 52.8538 -102.0398 59.4451 -70.4074 0.0000 0.0000 19.9030 -10.9355 -28.4408 5.2574 7.1250 -0.0000 -0.0000 21.7714 -57.5068 -6.8856
12.5923 17.6400 33.7762 -187.2940 -187.0590 -218.3420 0.0000 0.0000 0.0000 -14.3734 -2.4083 -19.4806 5.2203 13.6277 41.7660 0.2909 -20.8870 -16.9184 0.0100 0.6469 1.7777 0.0000 0.0000 0.0000 25.9718 7.2964 -18.0221 -5.3000 -13.7139 42.1033 -1.4269 3.5705 -21.6989 -2.1743 -9.2201 26.4863 -2.1771 -1.6349 13.8883 0.4034 -2.4356 5.2269 2.0220 -1.2392 -2.1648 -6.4135 -8.6879 3.9153 13.5946 -9.4906 -31.4863 6.6871 -5.0981 -9.4131 0.0000 -0.0000 0.0000 -88.0762 -7.5468 42.6621 103.4494 -59.3054 -71.6203 -0.0000 -0.0000 34.7168 -13.5298 -2.8380 0.6826 -7.1250 0.0000 -0.0000 -29.4036 26.4144 15.2381 0.0000 -0.0000 0.0000 81.9652 10.0569 53.8002 -103.6312 59.2861 -71.7766 0.0000 0.0000 19.4340 -10.5453 -28.7732 5.1203 7.1250 -0.0000 -0.0000 22.4024 -57.7299 -7.2209
12.5669 17.7027 33.8509 -187.7620 -187.8140 -218.1880 0.0000 0.0000 0.0000 -14.3360 -2.4855 -19.3741 5.1737 13.5768 41.5679 0.2157 -21.3774 -16.6771 0.0191 0.8919 2.4513 0.0000 0.0000 0.0000 26.0030 7.1092 -17.6952 -5.2472 -13.6568 41.8798 -1.4668 5.0813 -21.8019 -2.6592 -10.1218 29.3720 -2.0428 -1.7352 15.2532 0.2304 -2.5967 4.0233 1.8752 -1.2743 -4.1711 -6.4211 -8.9257 5.4403 13.3190 -9.9877 -31.3202 6.7053 -5.3189 -9.6064 0.0000 -0.0000 0.0000 -87.8087 -4.9655 43.3030 104.9538 -59.1380 -72.9128 -0.0000 -0.0000 35.1430 -13.6345 -2.7806 0.6742 -7.1250 0.0000 -0.0000 -29.4865 26.4590 15.2580 0.0000 -0.0000 0.0000 81.8990 7.0354 54.5561 -104.5990 59.1792 -72.6082 0.0000 0.0000 20.5175 -11.7402 -30.9838 6.1066 7.1250 -0.0000 -0.0000 22.8680 -60.0207 -8.6516
12.5443 17.7706 33.9245 -188.3920 -187.7280 -218.2350 0.0000 0.0000 0.0000 -13.5015 -2.5536 -19.2887 5.1364 13.5358 41.4088 0.0890 -21.9630 -16.1377 0.0747 1.7634 4.8522 0.0000 0.0000 0.0000 26.7101 7.4252 -16.9961 -5.1967 -13.6019 41.6657 -1.4575 7.2303 -21.6003 -3.3179 -11.1927 32.9325 -1.9056 -1.7230 14.3850 0.5143 -2.5238 4.7213 2.0305 -1.2646 -2.9649 -6.5157 -9.1308 5.1838 13.3626 -10.2483 -31.9765 6.7865 -5.4205 -9.7574 -0.0000 0.0000 0.0000 -87.9506 -5.4289 43.5756 105.8272 -59.0320 -73.6622 -0.0000 -0.0000 35.5761 -13.7580 -2.6514 0.6489 -7.1250 0.0000 -0.0000 -29.6006 26.5665 15.2471 -0.0000 0.0000 0.0000 81.2469 7.3779 54.1666 -105.0385 59.1280 -72.9856 0.0000 0.0000 18.9590 -11.6067 -29.3043 5.7406 7.1250 -0.0000 -0.0000 21.7050 -58.4490 -7.3615
12.5241 17.8462 33.9979 -188.5420 -187.8520 -218.2640 0.0000 0.0000 0.0000 -13.3016 -2.3866 -18.9211 5.0809 13.4743 41.1710 0.0391 -22.2810 -15.9905 0.1015 2.0549 5.6574 0.0000 0.0000 0.0000 26.7825 7.9026 -16.3127 -5.1343 -13.5334 41.3996 -1.3432 9.3274 -20.7995 -4.1292 -12.3304 36.9109 -2.5744 -1.6390 12.9511 0.8539 -2.4500 5.8866 2.6648 -1.2839 -0.9298 -6.7002 -9.3426 4.2943 13.4794 -10.4698 -32.8494 6.8794 -5.4906 -9.8614 0.0000 -0.0000 0.0000 -88.4284 -6.4961 43.6770 106.9351 -58.8881 -74.6115 -0.0000 -0.0000 35.7583 -14.0144 -2.2864 0.5705 -7.1250 0.0000 -0.0000 -29.8636 26.8757 15.1676 0.0000 -0.0000 0.0000 80.2250 8.4840 54.4181 -106.0269 59.0068 -73.8334 0.0000 0.0000 18.2908 -11.9558 -29.9717 6.0386 7.1250 -0.0000 -0.0000 21.8445 -59.1424 -7.7789
12.5032 17.8998 34.0773 -188.5990 -188.2150 -218.2370 0.0000 0.0000 0.0000 -13.3436 -2.2280 -18.6576 5.0455 13.4349 41.0189 -0.0058 -22.7202 -15.9733 0.0664 1.6630 4.5752 0.0000 0.0000 0.0000 26.7756 7.7523 -15.6567 -5.0819 -13.4755 41.1755 -1.2760 10.8706 -20.4640 -4.6680 -12.9999 39.3682 -3.2982 -1.5614 12.0514 1.0745 -2.3925 6.5879 3.2436 -1.3082 0.3311 -6.8380 -9.6102 3.9611 13.4593 -10.8376 -33.6067 6.9539 -5.6245 -10.0295 -0.0000 0.0000 0.0000 -88.7761 -6.8234 43.9705 108.3803 -58.6842 -75.8475 -0.0000 -0.0000 35.6133 -14.3456 -1.7903 0.4578 -7.1250 0.0000 -0.0000 -30.2131 27.2956 15.0459 -0.0000 0.0000 0.0000 79.3599 8.7903 54.5195 -106.6488 58.9263 -74.3663 0.0000 0.0000 17.9954 -12.5224 -30.2060 6.3759 7.1250 -0.0000 -0.0000 21.4356 -59.4872 -7.8031
